<?xml version="1.0" standalone="no"?>
<!DOCTYPE svg PUBLIC "-//W3C//DTD SVG 20010904//EN"
 "http://www.w3.org/TR/2001/REC-SVG-20010904/DTD/svg10.dtd">
<svg version="1.0" xmlns="http://www.w3.org/2000/svg"
 width="2153.000000pt" height="1691.000000pt" viewBox="0 0 2153.000000 1691.000000"
 preserveAspectRatio="xMidYMid meet">

<g transform="translate(0.000000,1691.000000) scale(0.100000,-0.100000)"
fill="#000000" stroke="none">
<path d="M0 8455 l0 -8455 10765 0 10765 0 0 8455 0 8455 -10765 0 -10765 0 0
-8455z m13730 4754 c22 -12 43 -25 46 -30 3 -5 30 -27 60 -50 30 -22 54 -47
54 -55 0 -9 9 -26 19 -38 11 -11 51 -58 91 -104 39 -45 83 -88 98 -96 15 -8
38 -26 51 -40 14 -14 30 -26 37 -26 7 0 25 -10 41 -23 15 -13 49 -35 75 -50
25 -15 68 -53 95 -84 26 -32 50 -60 53 -63 3 -3 16 -18 28 -34 12 -16 48 -57
79 -93 31 -35 64 -74 72 -87 9 -13 52 -71 96 -129 88 -116 219 -320 282 -437
22 -41 57 -105 76 -142 20 -37 41 -75 46 -85 22 -39 111 -235 125 -276 8 -23
28 -71 44 -107 16 -36 40 -94 52 -130 12 -36 31 -84 41 -107 22 -50 23 -57 7
-47 -7 4 -5 -2 5 -13 19 -22 23 -48 5 -37 -7 4 -8 3 -4 -5 4 -6 11 -9 15 -6 7
4 43 -98 83 -235 6 -19 16 -45 24 -56 13 -22 63 -255 85 -395 6 -41 15 -79 20
-85 5 -7 11 -47 14 -90 2 -44 8 -126 14 -184 10 -103 27 -436 25 -475 -1 -11
-5 -69 -8 -130 -4 -60 -8 -130 -11 -155 -13 -124 -16 -156 -20 -170 -2 -8 -7
-42 -10 -75 -7 -71 -44 -305 -49 -314 -2 -3 -7 -24 -10 -46 -20 -130 -93 -373
-179 -595 -39 -102 -161 -369 -186 -410 -5 -8 -29 -46 -52 -85 -60 -100 -150
-211 -109 -135 8 15 6 17 -13 13 -21 -4 -21 -4 -4 10 22 18 19 62 -3 62 -21 0
-28 45 -13 75 7 14 13 31 13 39 0 8 11 34 25 58 14 23 23 43 19 43 -5 0 0 6
10 13 13 9 19 28 20 59 0 25 4 44 8 42 10 -6 36 55 42 101 17 117 20 131 33
147 6 7 15 26 18 41 4 15 11 30 16 32 4 3 6 12 2 20 -3 8 0 15 7 15 6 0 8 4 5
10 -3 5 0 22 9 37 53 99 115 324 120 433 1 33 2 35 34 32 34 -3 34 -3 31 35
-2 21 0 58 4 83 3 25 9 78 12 119 6 82 22 148 42 172 19 23 30 85 13 74 -9 -5
-11 -4 -6 3 4 7 14 12 22 12 8 0 14 10 14 26 0 14 -4 23 -10 19 -5 -3 -10 -14
-10 -23 0 -15 -2 -15 -10 -2 -8 13 -10 12 -10 -2 0 -11 -8 -18 -21 -18 -11 0
-17 4 -14 10 3 5 8 20 10 32 3 12 10 25 17 29 7 5 12 37 12 88 1 45 4 81 9 81
9 0 28 46 32 80 2 14 4 30 5 35 5 23 -1 46 -10 40 -16 -10 -12 7 5 19 10 8 12
15 5 26 -9 13 -11 13 -20 0 -8 -13 -10 -12 -10 3 0 11 10 28 23 38 l22 20 -25
-6 -25 -6 24 14 c15 9 20 17 12 21 -6 4 -10 21 -10 39 2 32 -6 76 -15 84 -2 3
-1 17 4 32 4 16 4 34 0 41 -5 7 -6 20 -3 28 5 11 10 9 25 -9 11 -13 17 -18 13
-12 -3 7 -8 23 -10 35 -3 12 -10 25 -16 29 -8 5 -8 8 0 14 9 5 9 10 0 21 -7 8
-9 27 -5 44 6 31 5 31 -30 24 -35 -6 -36 -6 -24 16 9 18 9 24 0 30 -10 6 -7
17 10 45 25 40 24 78 -4 137 -8 18 -18 53 -21 78 -4 25 -13 56 -20 70 -19 33
-51 144 -60 204 -7 42 -5 50 18 74 27 28 28 50 12 136 -6 28 -5 37 3 32 17
-10 8 36 -27 141 -16 51 -28 102 -26 114 2 12 -4 39 -14 60 -11 22 -14 36 -8
32 7 -3 4 2 -5 13 -9 10 -17 22 -18 26 -8 35 -14 48 -22 48 -5 0 -6 5 -3 10 3
6 1 10 -5 10 -6 0 -9 4 -5 9 6 11 -15 61 -26 61 -5 0 -6 6 -3 14 3 7 -2 16
-10 19 -9 4 -16 13 -16 21 0 7 -7 17 -15 20 -19 7 -48 72 -40 86 4 6 -5 10
-19 10 -35 0 -33 18 2 22 l27 3 -26 27 c-15 15 -24 29 -21 32 3 3 0 6 -6 6
-17 0 -15 -20 3 -26 8 -4 15 -12 15 -20 0 -23 -24 -5 -50 36 -13 22 -28 40
-32 40 -4 0 -8 5 -8 11 0 8 4 8 15 -1 8 -6 18 -9 24 -6 5 3 12 0 14 -6 3 -7 6
-4 6 7 0 11 -6 29 -14 39 -13 17 -15 17 -15 3 0 -11 -5 -14 -15 -11 -10 4 -13
13 -10 25 4 10 3 24 -2 31 -4 7 -8 20 -9 28 -4 59 -3 56 -18 34 -9 -12 -11
-23 -5 -30 6 -8 4 -14 -6 -18 -9 -3 -13 -2 -10 4 3 6 1 10 -4 10 -6 0 -11 7
-11 15 0 8 6 15 14 15 9 0 13 10 12 25 0 14 -7 25 -13 25 -7 0 -13 4 -13 9 0
5 -14 20 -32 32 l-31 22 5 -26 c3 -14 1 -24 -3 -21 -13 8 -33 -38 -32 -74 0
-24 -3 -30 -10 -23 -6 6 -19 11 -29 11 -10 0 -25 14 -34 31 -17 33 -25 127
-12 135 4 3 5 17 2 33 -5 23 -2 29 14 33 15 4 19 2 15 -8 -3 -8 0 -14 7 -14 6
0 8 -5 4 -11 -4 -7 1 -10 12 -7 19 4 22 22 11 78 -8 43 -19 61 -34 56 -8 -4
-11 -1 -7 5 9 15 -27 78 -48 85 -10 3 -18 14 -18 24 0 10 -5 22 -10 25 -7 4
-9 -2 -4 -19 3 -14 3 -26 -2 -26 -15 0 -44 34 -44 52 0 23 -63 114 -68 99 -2
-6 -8 -8 -14 -5 -7 4 -6 9 2 14 7 5 -1 20 -26 48 -20 23 -40 39 -44 37 -11 -7
-57 47 -67 80 -6 19 -17 31 -31 33 -12 2 -22 7 -22 12 0 5 -11 26 -25 46 -14
20 -25 31 -25 24 0 -7 -10 0 -22 15 -15 19 -18 30 -10 33 9 3 9 9 1 24 -6 11
-17 17 -25 14 -9 -3 -14 1 -14 12 0 23 -57 92 -77 92 -8 0 -30 15 -49 33 -71
67 -85 77 -105 77 -18 0 -35 26 -29 45 1 4 -9 15 -21 26 -16 14 -25 16 -35 8
-10 -8 -19 -5 -36 14 -13 14 -46 49 -74 79 -28 30 -55 65 -59 78 -6 18 -9 20
-16 9 -8 -12 -12 -11 -23 4 -7 9 -18 17 -24 17 -6 0 -18 13 -28 29 -9 15 -29
35 -43 44 -39 23 -68 57 -50 58 8 1 3 5 -11 9 l-25 8 28 1 c15 1 27 6 27 11 0
15 15 12 60 -11z m558 -615 c15 -33 8 -30 -18 6 -14 20 -16 28 -7 24 8 -3 19
-16 25 -30z m2575 -1345 c55 -45 103 -151 90 -199 -10 -37 -30 -21 -58 46 -16
37 -43 87 -60 113 -48 70 -48 71 -28 71 10 0 35 -14 56 -31z m181 -301 c17
-34 21 -68 8 -68 -5 0 -16 25 -24 55 -16 58 -9 64 16 13z m-430 -167 c21 -23
38 -79 25 -86 -5 -4 -14 7 -20 22 -6 15 -18 40 -26 56 -16 31 -4 36 21 8z
m-41 -149 c31 -29 33 -40 12 -56 -22 -17 -3 -38 41 -45 37 -6 39 -8 48 -54 12
-58 -1 -101 -30 -105 -11 -2 -27 4 -34 13 -10 12 -10 21 3 46 16 34 13 62 -9
80 -18 14 -44 5 -44 -17 0 -12 -6 -15 -22 -11 -14 4 -36 -4 -66 -24 -28 -19
-62 -32 -89 -35 -24 -2 -57 -11 -73 -19 -54 -28 -55 -15 -2 31 57 50 64 64 30
64 -20 0 -19 3 12 30 19 16 50 37 68 46 17 9 32 22 32 28 0 6 6 21 14 32 21
30 74 28 109 -4z m-268 -152 c-3 -5 -11 -10 -16 -10 -6 0 -7 5 -4 10 3 6 11
10 16 10 6 0 7 -4 4 -10z m645 -31 c0 -33 -39 -81 -63 -77 -21 3 -34 38 -13
38 6 0 20 14 29 30 21 35 47 40 47 9z m127 -47 c24 -64 24 -154 -1 -181 -40
-44 -45 -30 -44 108 1 143 12 160 45 73z m-1647 -1496 c0 -3 -4 -8 -10 -11 -5
-3 -10 -1 -10 4 0 6 5 11 10 11 6 0 10 -2 10 -4z m1220 -1256 c0 -13 -11 -13
-30 0 -12 8 -11 10 8 10 12 0 22 -4 22 -10z m270 -11 c0 -3 11 -11 24 -17 32
-14 41 -61 16 -84 -11 -10 -24 -18 -30 -18 -5 0 -10 -9 -10 -20 0 -11 -4 -20
-10 -20 -5 0 -10 6 -10 14 0 23 -58 46 -116 46 -29 0 -56 5 -59 10 -4 6 -29
20 -55 32 -51 22 -57 38 -13 38 18 0 24 4 19 15 -5 13 11 15 119 13 69 -2 125
-6 125 -9z m-320 -29 c0 -5 -7 -7 -15 -4 -8 4 -15 8 -15 10 0 2 7 4 15 4 8 0
15 -4 15 -10z m-1830 -160 c0 -5 -5 -10 -11 -10 -5 0 -7 5 -4 10 3 6 8 10 11
10 2 0 4 -4 4 -10z m33 -143 c15 -6 16 -10 5 -29 -13 -23 -25 -40 -43 -61 -6
-7 -10 -37 -10 -67 0 -30 -5 -64 -12 -75 -15 -26 -9 -121 8 -117 7 2 10 -5 6
-18 -5 -19 -3 -20 11 -8 9 7 20 17 23 22 4 4 17 3 29 -4 15 -8 20 -8 16 -1 -4
6 0 11 11 12 10 0 13 3 6 6 -7 2 -13 12 -13 21 0 22 48 74 61 66 6 -3 5 3 -2
14 -10 16 -10 25 -1 44 7 13 10 15 8 6 -3 -10 -1 -18 4 -18 6 0 10 5 10 11 0
5 5 7 12 3 8 -5 6 -11 -6 -20 -11 -8 -13 -14 -7 -19 16 -9 13 -31 -6 -51 -16
-16 -16 -16 5 -10 13 4 22 3 22 -3 0 -26 -88 -156 -163 -241 -90 -101 -220
-230 -233 -230 -8 0 -14 -4 -14 -10 0 -14 -42 -50 -58 -50 -10 0 -8 6 8 20 13
11 27 20 32 20 4 0 8 9 8 21 0 11 4 29 10 39 8 14 5 19 -13 24 -12 3 -23 1
-25 -4 -2 -6 -11 -10 -19 -10 -9 0 -13 -6 -9 -15 4 -11 -1 -15 -17 -15 -12 0
-32 -7 -43 -15 -12 -8 -24 -12 -27 -8 -10 9 12 43 28 43 22 0 20 56 -2 64 -11
4 -22 1 -29 -8 -6 -9 -14 -16 -18 -16 -4 0 -14 -7 -22 -15 -16 -15 -54 -21
-54 -7 0 4 12 14 28 23 15 8 34 29 42 45 8 16 27 44 42 62 16 18 28 37 28 41
0 5 25 47 56 92 30 46 54 90 51 98 -2 9 9 26 25 39 l28 24 0 -24 c0 -22 -19
-63 -20 -43 -1 20 -30 -30 -30 -52 0 -45 60 -17 66 32 1 6 2 14 3 19 0 6 8 1
16 -10 14 -18 14 -18 15 4 0 25 34 97 50 107 5 3 10 26 10 50 0 46 17 95 32
95 5 0 7 3 5 8 -6 9 19 33 27 25 3 -4 6 5 6 18 0 14 5 30 12 37 9 9 9 12 -1
12 -7 0 -9 5 -6 10 4 6 9 9 13 7 4 -2 15 -7 25 -10z m-115 -80 c-5 -61 -39
-134 -74 -160 -35 -26 -30 -6 21 85 25 44 45 91 45 104 0 13 3 24 6 24 4 0 5
-24 2 -53z m322 3 c0 -3 -4 -11 -9 -18 -6 -11 -10 -10 -15 4 -6 16 -8 16 -21
-2 -17 -22 -19 -38 -5 -29 5 3 7 0 5 -7 -8 -21 -45 -17 -45 4 0 10 6 18 14 18
8 0 17 9 21 19 4 12 14 18 30 17 14 0 25 -3 25 -6z m1540 -40 c20 -18 33 -41
35 -62 2 -18 7 -52 10 -75 3 -23 1 -51 -5 -62 -10 -20 -89 -61 -116 -61 -7 0
-32 33 -55 73 -23 39 -45 74 -49 77 -10 7 -62 91 -58 94 2 1 17 8 33 16 17 8
33 16 36 18 4 1 10 -9 13 -24 11 -42 41 -75 55 -61 6 6 11 17 11 24 0 7 5 13
10 13 6 0 10 5 10 10 0 8 27 43 36 49 1 1 16 -12 34 -29z m-115 -20 c3 -5 -1
-10 -10 -10 -9 0 -13 5 -10 10 3 6 8 10 10 10 2 0 7 -4 10 -10z m-1450 -40
c-3 -5 -11 -10 -16 -10 -6 0 -7 5 -4 10 3 6 11 10 16 10 6 0 7 -4 4 -10z
m-597 -536 c-1 -5 -9 -9 -16 -10 -10 -2 -11 1 -1 12 12 14 24 13 17 -2z m22
-174 c0 -5 -2 -10 -4 -10 -3 0 -8 5 -11 10 -3 6 -1 10 4 10 6 0 11 -4 11 -10z"/>
<path d="M14380 12551 c0 -6 5 -13 10 -16 6 -4 8 -10 6 -14 -3 -4 5 -8 16 -8
20 -2 20 -1 -2 23 -26 26 -30 29 -30 15z"/>
<path d="M14420 12494 c0 -5 9 -20 20 -34 14 -18 20 -21 20 -9 0 9 -9 24 -20
34 -11 10 -20 14 -20 9z"/>
<path d="M14956 11777 c3 -10 9 -15 12 -12 3 3 0 11 -7 18 -10 9 -11 8 -5 -6z"/>
<path d="M14685 7010 c-3 -5 -3 -15 1 -21 6 -11 23 6 24 24 0 10 -18 9 -25 -3z"/>
<path d="M14740 6886 c0 -8 6 -16 14 -19 10 -4 12 0 9 14 -6 22 -23 26 -23 5z"/>
<path d="M14591 6881 c-8 -6 -9 -11 -3 -15 6 -3 14 -1 17 5 9 14 2 20 -14 10z"/>
<path d="M14485 6767 c-4 -10 -5 -21 -1 -24 10 -10 18 4 13 24 -4 17 -4 17
-12 0z"/>
</g>
</svg>
